<svg version="1.1" viewBox="0.0 0.0 512.0 512.0" fill="none" stroke="none" stroke-linecap="square" stroke-miterlimit="10" xmlns:xlink="http://www.w3.org/1999/xlink" xmlns="http://www.w3.org/2000/svg"><clipPath id="p.0"><path d="m0 0l512.0 0l0 512.0l-512.0 0l0 -512.0z" clip-rule="nonzero"/></clipPath><g clip-path="url(#p.0)"><path fill="#000000" fill-opacity="0.0" d="m0 0l512.0 0l0 512.0l-512.0 0z" fill-rule="evenodd"/><path fill="#b7b7b7" d="m362.18805 79.35958l0 0c58.646545 58.646553 58.646545 153.73141 0 212.37793q-75.19403 75.19403 -106.18898 194.58707q-30.99498 -119.393036 -106.18898 -194.58707l0 0c-58.646553 -58.64653 -58.646553 -153.73138 0 -212.37793l0 0c58.646545 -58.646553 153.73138 -58.646553 212.37796 0z" fill-rule="evenodd"/><path fill="#ffffff" d="m150.9026 162.05173l22.551193 0l0 45.196854l-22.551193 0z" fill-rule="evenodd"/><path fill="#ffffff" d="m197.81387 138.08882l22.551178 0l0 93.102356l-22.551178 0z" fill-rule="evenodd"/><path fill="#ffffff" d="m244.72514 104.27034l22.551193 0l0 162.5512l-22.551193 0z" fill-rule="evenodd"/><path fill="#ffffff" d="m361.09814 162.95055l-22.551178 0l0 45.19684l22.551178 0z" fill-rule="evenodd"/><path fill="#ffffff" d="m314.1869 138.98747l-22.551178 0l0 93.102356l22.551178 0z" fill-rule="evenodd"/></g></svg>